<svg xmlns="http://www.w3.org/2000/svg" viewBox="0 0 512 512">
  <defs>
    <linearGradient id="appBlackGradient" x1="0%" y1="0%" x2="100%" y2="100%">
      <stop offset="0%" stop-color="#1a1a1a"/>
      <stop offset="45%" stop-color="#080808"/>
      <stop offset="100%" stop-color="#000000"/>
    </linearGradient>

    <radialGradient id="softHighlight" cx="35%" cy="20%" r="70%">
      <stop offset="0%" stop-color="#2a2a2a" stop-opacity="0.65"/>
      <stop offset="55%" stop-color="#111111" stop-opacity="0.25"/>
      <stop offset="100%" stop-color="#000000" stop-opacity="0"/>
    </radialGradient>
  </defs>

  <rect width="512" height="512" rx="96" fill="url(#appBlackGradient)"/>
  <rect width="512" height="512" rx="96" fill="url(#softHighlight)"/>
 <path id="gren"
        fill="#3fc84f" stroke="#3fc84f" stroke-width="1"
        d="M 200.00,122.53
           C 219.47,120.32 223.94,144.43 210.00,151.69
             207.25,153.11 204.02,153.09 201.00,152.98
             189.21,152.56 183.74,139.72 189.23,130.00
             191.89,125.29 195.03,123.88 200.00,122.53 Z
           M 201.14,133.66
           C 195.22,137.59 199.36,143.95 203.98,142.35
             209.00,140.62 208.79,133.12 201.14,133.66 Z" />
  <path id="yelow"
        fill="#febb40" stroke="#febb40" stroke-width="1"
        d="M 160.00,122.53
           C 179.19,120.35 184.06,144.37 170.00,151.69
             167.25,153.11 164.02,153.09 161.00,152.98
             150.46,152.60 144.01,141.43 148.09,132.00
             150.54,126.33 154.33,124.08 160.00,122.53 Z
           M 161.10,133.66
           C 154.19,137.91 159.76,143.74 163.86,142.34
             167.61,141.07 168.74,133.11 161.10,133.66 Z" />
  <path id="red"
        fill="#fd5d58" stroke="#fd5d58" stroke-width="1"
        d="M 120.00,122.53
           C 138.98,120.38 144.07,144.26 129.99,151.69
             127.28,153.11 123.99,153.09 121.00,152.98
             109.70,152.58 103.85,140.76 108.41,131.01
             110.97,125.56 114.51,124.01 120.00,122.53 Z
           M 121.14,133.66
           C 115.29,137.56 119.37,143.82 123.90,142.34
             128.49,140.85 128.79,133.11 121.14,133.66 Z" />
  <path id="iframe"
        fill="#ffffff" stroke="#ffffff" stroke-width="1"
        d="M 95.00,170.00
           C 95.00,170.00 95.00,344.00 95.00,344.00
             95.00,344.00 95.00,364.00 95.00,364.00
             95.00,376.42 94.01,390.83 109.00,395.35
             111.50,396.11 114.40,396.00 117.00,396.00
             117.00,396.00 310.00,396.00 310.00,396.00
             310.00,396.00 348.00,396.00 348.00,396.00
             356.40,395.88 364.69,391.48 367.35,383.00
             368.11,380.59 368.00,377.53 368.00,375.00
             368.00,375.00 368.00,268.00 368.00,268.00
             368.00,265.56 367.76,261.47 369.17,259.43
             371.28,256.38 375.97,256.76 377.98,260.15
             379.19,262.20 379.00,265.65 379.00,268.00
             379.00,268.00 379.00,376.00 379.00,376.00
             378.73,398.65 364.98,406.97 344.00,407.00
             344.00,407.00 119.00,407.00 119.00,407.00
             99.70,406.97 85.03,399.36 85.00,378.00
             85.00,378.00 85.00,169.00 85.00,169.00
             85.00,169.00 85.00,145.00 85.00,145.00
             85.00,132.42 83.22,121.50 94.02,112.33
             96.62,110.11 100.71,107.62 104.00,106.63
             107.97,105.44 114.79,105.01 119.00,105.00
             119.00,105.00 344.00,105.00 344.00,105.00
             364.98,105.03 378.73,113.35 379.00,136.00
             379.00,136.00 379.00,161.00 379.00,161.00
             378.95,163.47 378.96,166.52 377.11,168.43
             375.21,170.38 371.53,170.00 369.00,170.00
             369.00,170.00 95.00,170.00 95.00,170.00 Z
           M 368.00,160.00
           C 368.00,160.00 367.35,128.00 367.35,128.00
             365.75,122.88 361.01,118.60 356.00,116.92
             352.89,115.87 350.21,116.01 347.00,116.00
             347.00,116.00 154.00,116.00 154.00,116.00
             154.00,116.00 122.00,116.00 122.00,116.00
             117.14,116.00 110.37,115.41 106.00,117.41
             96.64,121.71 95.01,129.69 95.00,139.00
             95.00,139.00 95.00,160.00 95.00,160.00
             95.00,160.00 368.00,160.00 368.00,160.00 Z
           M 236.06,132.74
           C 241.89,131.29 262.64,132.00 270.00,132.00
             270.00,132.00 338.00,132.00 338.00,132.00
             340.62,132.00 344.50,131.78 346.77,133.17
             349.89,135.08 350.72,139.64 347.57,141.83
             345.53,143.23 341.44,143.00 339.00,143.00
             339.00,143.00 255.00,143.00 255.00,143.00
             251.54,143.00 237.42,143.39 235.15,142.40
             230.12,140.21 232.18,135.11 236.06,132.74 Z
           M 395.00,159.53
           C 398.85,158.99 401.50,159.09 405.00,161.09
             408.97,163.36 411.96,167.49 414.80,171.00
             421.16,178.86 432.49,189.15 424.43,199.96
             421.79,203.50 411.93,211.00 408.00,214.25
             408.00,214.25 374.00,242.20 374.00,242.20
             374.00,242.20 352.99,259.72 352.99,259.72
             352.99,259.72 324.00,283.28 324.00,283.28
             324.00,283.28 296.00,305.71 296.00,305.71
             292.02,307.65 288.13,307.63 284.00,308.51
             284.00,308.51 264.00,312.84 264.00,312.84
             264.00,312.84 258.00,312.84 258.00,312.84
             239.55,312.28 253.84,288.38 257.20,280.00
             258.95,275.64 261.19,268.72 264.18,265.32
             264.18,265.32 295.99,238.81 295.99,238.81
             295.99,238.81 353.00,191.75 353.00,191.75
             353.00,191.75 376.00,172.87 376.00,172.87
             381.59,168.09 387.96,161.78 395.00,159.53 Z
           M 403.00,205.00
           C 405.48,202.71 414.76,195.17 415.60,192.83
             417.01,188.90 406.18,177.15 403.39,174.06
             401.94,172.46 400.33,170.65 397.99,170.62
             394.35,170.58 386.38,178.59 383.00,181.00
             385.71,186.12 398.42,201.50 403.00,205.00 Z
           M 346.00,373.00
           C 346.00,373.00 346.00,285.00 346.00,285.00
             346.00,282.92 345.76,279.30 346.99,277.57
             349.09,274.64 353.21,275.35 354.98,278.23
             356.20,280.22 356.00,283.70 356.00,286.00
             356.00,286.00 356.00,360.00 356.00,360.00
             356.00,364.90 357.30,379.36 353.69,382.40
             351.44,384.29 347.77,383.99 345.00,384.00
             345.00,384.00 162.00,384.00 162.00,384.00
             162.00,384.00 116.00,384.00 116.00,384.00
             106.90,383.83 107.01,379.76 107.00,372.00
             107.00,372.00 107.00,226.00 107.00,226.00
             107.00,226.00 107.00,195.00 107.00,195.00
             107.01,191.81 106.71,187.91 108.74,185.23
             111.47,181.61 115.97,182.01 120.00,182.00
             120.00,182.00 327.00,182.00 327.00,182.00
             330.02,182.00 334.11,181.80 336.76,183.45
             340.11,185.58 340.07,189.93 336.76,191.98
             334.79,193.20 331.29,193.00 329.00,193.00
             329.00,193.00 118.00,193.00 118.00,193.00
             118.00,193.00 118.00,373.00 118.00,373.00
             118.00,373.00 346.00,373.00 346.00,373.00 Z
           M 376.00,189.00
           C 370.53,190.59 366.70,194.64 362.42,198.27
             362.42,198.27 345.99,211.80 345.99,211.80
             345.99,211.80 275.00,270.00 275.00,270.00
             275.00,270.00 282.00,278.00 282.00,278.00
             282.00,278.00 320.96,245.79 320.96,245.79
             320.96,245.79 358.00,215.20 358.00,215.20
             358.00,215.20 374.00,201.92 374.00,201.92
             374.00,201.92 379.09,195.91 379.09,195.91
             379.09,195.91 376.00,189.00 376.00,189.00 Z
           M 191.39,200.02
           C 196.31,198.16 200.54,200.16 199.31,206.00
             198.70,208.93 192.16,221.59 190.42,225.00
             190.42,225.00 176.08,255.00 176.08,255.00
             174.29,258.58 169.86,269.33 166.87,270.97
             163.05,273.08 157.13,270.63 159.39,264.00
             159.39,264.00 180.50,220.00 180.50,220.00
             183.27,214.41 187.17,204.02 191.39,200.02 Z
           M 388.00,204.00
           C 388.00,204.00 320.00,259.72 320.00,259.72
             320.00,259.72 288.00,287.00 288.00,287.00
             288.00,287.00 295.00,294.00 295.00,294.00
             295.00,294.00 363.96,236.52 363.96,236.52
             363.96,236.52 394.00,211.00 394.00,211.00
             394.00,211.00 388.00,204.00 388.00,204.00 Z
           M 144.00,236.00
           C 147.51,237.49 155.24,242.15 157.40,245.18
             159.09,247.56 159.42,251.21 156.69,252.97
             154.26,254.54 151.28,253.42 149.00,252.20
             144.96,250.04 130.99,240.98 129.84,236.96
             128.95,233.84 130.91,231.63 133.11,229.75
             136.69,226.68 149.60,217.16 153.98,217.28
             158.82,217.41 159.89,222.31 157.40,225.82
             156.18,227.53 153.72,229.18 152.00,230.42
             152.00,230.42 144.00,236.00 144.00,236.00 Z
           M 215.00,235.00
           C 210.69,233.32 194.08,224.67 201.32,218.60
             206.58,214.19 218.59,224.95 222.98,228.12
             225.18,229.70 227.86,231.28 228.53,234.10
             229.10,236.52 228.21,238.57 226.57,240.32
             226.57,240.32 212.28,250.38 212.28,250.38
             210.13,251.86 207.74,253.64 205.00,253.64
             201.02,253.65 198.20,250.00 200.19,246.30
             201.43,244.01 204.87,241.95 207.00,240.50
             207.00,240.50 215.00,235.00 215.00,235.00 Z
           M 270.00,281.00
           C 270.00,281.00 268.00,281.00 268.00,281.00
             268.00,281.00 260.00,303.00 260.00,303.00
             260.00,303.00 283.00,298.00 283.00,298.00
             283.00,298.00 270.00,281.00 270.00,281.00 Z
           M 133.11,283.56
           C 133.11,283.56 160.00,283.00 160.00,283.00
             160.00,283.00 208.00,283.00 208.00,283.00
             210.66,283.00 214.53,282.79 216.85,284.17
             220.28,286.21 220.17,290.17 217.57,291.98
             215.78,293.22 212.14,293.00 210.00,293.00
             210.00,293.00 137.00,293.00 137.00,293.00
             127.68,292.82 127.32,286.27 133.11,283.56 Z
           M 131.43,306.02
           C 136.33,304.09 150.05,305.00 156.00,305.00
             156.00,305.00 209.00,305.00 209.00,305.00
             211.10,305.00 214.68,304.76 216.43,305.99
             219.24,307.97 219.37,312.78 215.77,314.40
             214.17,315.12 210.81,315.00 209.00,315.00
             209.00,315.00 139.00,315.00 139.00,315.00
             135.46,314.99 130.37,315.57 129.54,310.95
             129.09,308.45 129.96,307.66 131.43,306.02 Z
           M 133.11,329.74
           C 138.35,328.41 158.44,328.88 165.00,329.00
             175.06,329.19 174.83,335.86 172.40,338.26
             170.32,340.32 165.75,340.00 163.00,340.00
             163.00,340.00 138.00,340.00 138.00,340.00
             127.54,339.85 127.22,333.48 133.11,329.74 Z
           M 190.06,329.74
           C 190.06,329.74 234.00,329.00 234.00,329.00
             234.00,329.00 323.00,329.00 323.00,329.00
             325.35,329.00 328.80,328.81 330.85,330.02
             334.22,332.02 334.79,336.91 331.69,338.98
             329.85,340.21 326.18,340.00 324.00,340.00
             324.00,340.00 217.00,340.00 217.00,340.00
             217.00,340.00 195.00,340.00 195.00,340.00
             185.95,339.83 183.40,333.82 190.06,329.74 Z
           M 133.11,354.56
           C 133.11,354.56 171.00,354.00 171.00,354.00
             171.00,354.00 244.00,354.00 244.00,354.00
             244.00,354.00 268.00,354.00 268.00,354.00
             272.10,354.06 278.45,355.00 276.78,360.90
             275.47,365.55 269.77,364.99 266.00,364.86
             266.00,364.86 159.00,364.86 159.00,364.86
             159.00,364.86 134.04,364.86 134.04,364.86
             128.90,363.07 127.23,357.32 133.11,354.56 Z
           M 293.13,354.57
           C 293.13,354.57 325.00,354.00 325.00,354.00
             328.42,354.05 332.69,353.96 333.67,358.10
             335.36,365.25 327.58,364.99 323.00,364.79
             323.00,364.79 294.04,364.79 294.04,364.79
             288.72,363.02 287.63,357.29 293.13,354.57 Z" />
</svg>